<svg width="20" height="20" viewBox="0 0 20 20" fill="none" xmlns="http://www.w3.org/2000/svg">
<path d="M10 11.6667C11.8383 11.6667 13.3333 10.1717 13.3333 8.33333C13.3333 6.495 11.8383 5 10 5C8.16167 5 6.66667 6.495 6.66667 8.33333C6.66667 10.1717 8.16167 11.6667 10 11.6667ZM10 6.66667C10.9192 6.66667 11.6667 7.41417 11.6667 8.33333C11.6667 9.2525 10.9192 10 10 10C9.08084 10 8.33334 9.2525 8.33334 8.33333C8.33334 7.41417 9.08084 6.66667 10 6.66667Z" fill="white"/>
<path d="M9.51667 18.1782C9.65771 18.2789 9.8267 18.333 10 18.333C10.1733 18.333 10.3423 18.2789 10.4833 18.1782C10.7367 17.999 16.6908 13.6998 16.6667 8.33317C16.6667 4.65734 13.6758 1.6665 10 1.6665C6.32417 1.6665 3.33334 4.65734 3.33334 8.329C3.30917 13.6998 9.26334 17.999 9.51667 18.1782ZM10 3.33317C12.7575 3.33317 15 5.57567 15 8.33734C15.0175 12.0357 11.3433 15.3565 10 16.4457C8.65751 15.3557 4.98251 12.034 5.00001 8.33317C5.00001 5.57567 7.24251 3.33317 10 3.33317Z" fill="white"/>
</svg>
