<svg width="33" height="30" viewBox="0 0 33 30" fill="none" xmlns="http://www.w3.org/2000/svg">
<path d="M9.33871 8.29688H10.7556C11.3886 8.29688 11.7051 8.29688 11.9433 8.45634C12.1816 8.61581 12.2816 8.89425 12.4817 9.45113L12.9764 10.8281" stroke="black" stroke-width="1.5" stroke-linecap="round"/>
<path d="M22.0708 19.2656H13.4766C13.3448 19.2656 13.2784 19.2656 13.2274 19.2606C13.1012 19.2475 12.9793 19.21 12.8695 19.1506C12.7598 19.0911 12.6648 19.011 12.5905 18.9153C12.5162 18.8197 12.4643 18.7107 12.4382 18.5953C12.4121 18.48 12.4124 18.3608 12.439 18.2455C12.46 18.1709 12.4845 18.0971 12.5126 18.0245C12.5599 17.8945 12.5827 17.8296 12.609 17.7713C12.7385 17.4837 12.9513 17.2349 13.2239 17.0526C13.4965 16.8703 13.8181 16.7616 14.1532 16.7386C14.2205 16.7344 14.2942 16.7344 14.4415 16.7344H19.3425" stroke="black" stroke-width="1.5" stroke-linecap="round" stroke-linejoin="round"/>
<path d="M19.0505 16.7344H16.2849C15.1209 16.7344 14.5388 16.7344 14.0841 16.4559C13.6285 16.1775 13.3993 15.6814 12.941 14.6891L12.7873 14.3567C12.0506 12.762 11.6832 11.9663 12.087 11.3968C12.4926 10.8281 13.4275 10.8281 15.2955 10.8281H20.0973C22.189 10.8281 23.2339 10.8281 23.6286 11.4584C24.0224 12.0887 23.504 12.9307 22.4663 14.6149L22.209 15.0342C21.6979 15.8636 21.4423 16.2787 21.0185 16.5066C20.5957 16.7344 20.08 16.7344 19.0505 16.7344Z" stroke="black" stroke-width="1.5" stroke-linecap="round"/>
<path d="M21.616 22.2188C22.1183 22.2188 22.5255 21.841 22.5255 21.375C22.5255 20.909 22.1183 20.5312 21.616 20.5312C21.1138 20.5312 20.7066 20.909 20.7066 21.375C20.7066 21.841 21.1138 22.2188 21.616 22.2188Z" fill="black"/>
<path d="M14.3406 22.2188C14.8428 22.2188 15.25 21.841 15.25 21.375C15.25 20.909 14.8428 20.5312 14.3406 20.5312C13.8383 20.5312 13.4312 20.909 13.4312 21.375C13.4312 21.841 13.8383 22.2188 14.3406 22.2188Z" fill="black"/>
<rect x="1.24701" y="0.75" width="30.8353" height="28.5" rx="4.25" stroke="#1E1E1E" stroke-width="1.5"/>
</svg>
