<svg width="30" height="30" viewBox="0 0 30 30" fill="none" xmlns="http://www.w3.org/2000/svg">
<path d="M8.20312 8.29688H9.51769C10.1049 8.29688 10.3986 8.29688 10.6196 8.45634C10.8407 8.61581 10.9335 8.89425 11.1191 9.45113L11.5781 10.8281" stroke="#FDF4E3" stroke-width="1.5" stroke-linecap="round"/>
<path d="M20.0156 19.2656H12.0422C11.9198 19.2656 11.8583 19.2656 11.811 19.2606C11.6938 19.2475 11.5807 19.21 11.479 19.1506C11.3772 19.0911 11.289 19.011 11.2201 18.9153C11.1511 18.8197 11.103 18.7107 11.0788 18.5953C11.0546 18.48 11.0548 18.3608 11.0795 18.2455C11.0989 18.1709 11.1218 18.0971 11.1478 18.0245C11.1917 17.8945 11.2128 17.8296 11.2373 17.7713C11.3574 17.4837 11.5548 17.2349 11.8077 17.0526C12.0606 16.8703 12.359 16.7616 12.6699 16.7386C12.7324 16.7344 12.8007 16.7344 12.9374 16.7344H17.4844" stroke="#FDF4E3" stroke-width="1.5" stroke-linecap="round" stroke-linejoin="round"/>
<path d="M17.2135 16.7344H14.6477C13.5677 16.7344 13.0277 16.7344 12.6058 16.4559C12.1831 16.1775 11.9705 15.6814 11.5452 14.6891L11.4026 14.3567C10.7192 12.762 10.3783 11.9663 10.7529 11.3968C11.1293 10.8281 11.9966 10.8281 13.7297 10.8281H18.1847C20.1253 10.8281 21.0948 10.8281 21.461 11.4584C21.8263 12.0887 21.3454 12.9307 20.3827 14.6149L20.1439 15.0342C19.6697 15.8636 19.4326 16.2787 19.0394 16.5066C18.6471 16.7344 18.1687 16.7344 17.2135 16.7344Z" stroke="#FDF4E3" stroke-width="1.5" stroke-linecap="round"/>
<path d="M19.5938 22.2188C20.0597 22.2188 20.4375 21.841 20.4375 21.375C20.4375 20.909 20.0597 20.5312 19.5938 20.5312C19.1278 20.5312 18.75 20.909 18.75 21.375C18.75 21.841 19.1278 22.2188 19.5938 22.2188Z" fill="#FDF4E3"/>
<path d="M12.8438 22.2188C13.3097 22.2188 13.6875 21.841 13.6875 21.375C13.6875 20.909 13.3097 20.5312 12.8438 20.5312C12.3778 20.5312 12 20.909 12 21.375C12 21.841 12.3778 22.2188 12.8438 22.2188Z" fill="#FDF4E3"/>
<rect x="0.75" y="0.75" width="28.5" height="28.5" rx="14.25" stroke="#FDF4E3" stroke-width="1.5"/>
</svg>
