<svg width="20" height="20" viewBox="0 0 20 20" fill="none" xmlns="http://www.w3.org/2000/svg">
<path d="M0.9375 1.0625H2.69025C3.47325 1.0625 3.86475 1.0625 4.1595 1.27513C4.45425 1.48775 4.578 1.859 4.8255 2.6015L5.4375 4.4375" stroke="black" stroke-width="1.5" stroke-linecap="round"/>
<path d="M16.6874 15.6875H6.05619C5.89307 15.6875 5.81094 15.6875 5.74794 15.6807C5.59174 15.6633 5.44092 15.6134 5.30521 15.5341C5.1695 15.4548 5.0519 15.348 4.96001 15.2205C4.86811 15.0929 4.80395 14.9476 4.77167 14.7938C4.73939 14.6399 4.73969 14.4811 4.77257 14.3274C4.79853 14.2278 4.82894 14.1295 4.86369 14.0326C4.92219 13.8594 4.95032 13.7728 4.98294 13.6951C5.14308 13.3115 5.40635 12.9798 5.74354 12.7368C6.08073 12.4937 6.47866 12.3488 6.89319 12.3181C6.97644 12.3125 7.06757 12.3125 7.24982 12.3125H13.3124" stroke="black" stroke-width="1.5" stroke-linecap="round" stroke-linejoin="round"/>
<path d="M12.9514 12.3125H9.53023C8.09023 12.3125 7.37024 12.3125 6.80774 11.9412C6.24411 11.57 5.96061 10.9085 5.39361 9.5855L5.20348 9.14225C4.29223 7.016 3.83773 5.95512 4.33723 5.19575C4.83898 4.4375 5.99549 4.4375 8.30624 4.4375H14.2462C16.8337 4.4375 18.1264 4.4375 18.6146 5.27787C19.1017 6.11825 18.4605 7.241 17.1769 9.4865L16.8585 10.0456C16.2262 11.1515 15.9101 11.705 15.3859 12.0087C14.8627 12.3125 14.2249 12.3125 12.9514 12.3125Z" stroke="black" stroke-width="1.5" stroke-linecap="round"/>
<path d="M16.125 19.625C16.7463 19.625 17.25 19.1213 17.25 18.5C17.25 17.8787 16.7463 17.375 16.125 17.375C15.5037 17.375 15 17.8787 15 18.5C15 19.1213 15.5037 19.625 16.125 19.625Z" fill="black"/>
<path d="M7.125 19.625C7.74632 19.625 8.25 19.1213 8.25 18.5C8.25 17.8787 7.74632 17.375 7.125 17.375C6.50368 17.375 6 17.8787 6 18.5C6 19.1213 6.50368 19.625 7.125 19.625Z" fill="black"/>
</svg>
