<svg width="14" height="18" viewBox="0 0 14 18" fill="none" xmlns="http://www.w3.org/2000/svg">
<path d="M6.51667 17.1782C6.65771 17.2789 6.8267 17.333 7.00001 17.333C7.17332 17.333 7.3423 17.2789 7.48334 17.1782C7.73667 16.999 13.6908 12.6998 13.6667 7.33317C13.6667 3.65734 10.6758 0.666504 7.00001 0.666504C3.32417 0.666504 0.333341 3.65734 0.333341 7.329C0.309174 12.6998 6.26334 16.999 6.51667 17.1782ZM7.00001 2.33317C9.75751 2.33317 12 4.57567 12 7.33734C12.0175 11.0357 8.34334 14.3565 7.00001 15.4457C5.65751 14.3557 1.98251 11.034 2.00001 7.33317C2.00001 4.57567 4.24251 2.33317 7.00001 2.33317Z" fill="white"/>
</svg>
