<svg width="17" height="15" viewBox="0 0 17 15" fill="none" xmlns="http://www.w3.org/2000/svg">
<path fill-rule="evenodd" clip-rule="evenodd" d="M12.8475 2.82417C12.5533 2.40083 11.7666 1.80583 10.4925 2.0625C9.74914 2.21167 9.30498 2.57917 9.02248 3.06417C8.72164 3.58083 8.57581 4.28333 8.57581 5.10083C8.57581 5.32185 8.48801 5.53381 8.33173 5.69009C8.17545 5.84637 7.96349 5.93417 7.74248 5.93417C5.77081 5.93417 3.89414 5.34833 2.31498 3.76417C2.19575 4.40692 2.14879 5.06098 2.17498 5.71417C2.21914 6.61917 2.43498 7.52667 2.94748 8.30417C3.45164 9.06833 4.28081 9.76834 5.66748 10.2083C5.80335 10.2514 5.9259 10.3287 6.0234 10.4327C6.12091 10.5366 6.19011 10.6639 6.22438 10.8023C6.25866 10.9406 6.25687 11.0855 6.21919 11.223C6.1815 11.3604 6.10918 11.486 6.00914 11.5875C5.56497 12.0431 5.06157 12.4369 4.51248 12.7583C5.39581 12.85 6.24748 12.8567 7.03748 12.785C8.63748 12.64 9.91164 12.1825 10.7083 11.535C12.3858 10.175 13.2833 8.14667 13.1166 4.74833C13.0883 4.19 13.6275 3.5875 13.8875 3.13C13.495 3.20334 13.1016 3.19 12.8475 2.82417ZM1.82831 1.15334C1.97919 1.1358 2.13199 1.15984 2.27019 1.22285C2.4084 1.28585 2.52676 1.38544 2.61248 1.51084C3.84248 3.31 5.31914 4.05833 6.95831 4.22833C7.03831 3.5275 7.22748 2.835 7.58331 2.225C8.10498 1.33 8.95331 0.671668 10.165 0.428335C11.84 0.0916682 13.115 0.698335 13.8541 1.44083L15.3475 1.16167C15.5037 1.13239 15.6651 1.14842 15.8126 1.20787C15.96 1.26733 16.0874 1.36772 16.1796 1.49721C16.2719 1.62669 16.3252 1.77987 16.3332 1.93865C16.3412 2.09743 16.3037 2.2552 16.225 2.39334L14.7916 4.91167C14.9225 8.54584 13.9125 11.0825 11.7591 12.83C10.6175 13.7567 8.98248 14.2825 7.18831 14.445C5.37998 14.6083 3.33581 14.4108 1.30414 13.8175C1.13055 13.7669 0.978142 13.6611 0.869913 13.5163C0.761684 13.3714 0.703509 13.1953 0.704168 13.0145C0.704827 12.8336 0.764283 12.6579 0.873564 12.5139C0.982845 12.3698 1.13602 12.2652 1.30998 12.2158C2.33164 11.925 3.10998 11.6742 3.81248 11.235C2.81331 10.705 2.07748 10.0117 1.55664 9.22167C0.833309 8.12334 0.564975 6.89833 0.511642 5.79417C0.458309 4.69 0.617475 3.66667 0.785809 2.92917C0.881642 2.50833 0.993309 2.08667 1.14748 1.68333C1.20186 1.54116 1.29414 1.4166 1.41431 1.32316C1.53448 1.22973 1.67712 1.17099 1.82831 1.15334Z" fill="white"/>
</svg>
